<mxfile host="app.diagrams.net" modified="2020-10-06T13:25:12.947Z" agent="5.0 (Windows)" etag="m2F7Y9aSUswFlyd6vK5n" version="13.7.7" type="github">
  <diagram id="B1PN454-ApUz-KcniCsA" name="Page-1">
    <mxGraphModel dx="910" dy="487" grid="1" gridSize="10" guides="1" tooltips="1" connect="1" arrows="1" fold="1" page="1" pageScale="1" pageWidth="1169" pageHeight="827" math="0" shadow="0">
      <root>
        <mxCell id="0" />
        <mxCell id="1" parent="0" />
        <mxCell id="IrvWHUWE-BIZSq4RJtWi-1" value="Plenary - Order Paper" style="swimlane;html=1;childLayout=stackLayout;resizeParent=1;resizeParentMax=0;horizontal=1;startSize=20;horizontalStack=0;" vertex="1" parent="1">
          <mxGeometry x="20" y="20" width="1120" height="634" as="geometry" />
        </mxCell>
        <mxCell id="IrvWHUWE-BIZSq4RJtWi-2" value="Clerk Assistant" style="swimlane;html=1;startSize=20;horizontal=0;" vertex="1" parent="IrvWHUWE-BIZSq4RJtWi-1">
          <mxGeometry y="20" width="1120" height="190" as="geometry" />
        </mxCell>
        <mxCell id="IrvWHUWE-BIZSq4RJtWi-10" value="Start" style="rounded=1;whiteSpace=wrap;html=1;" vertex="1" parent="IrvWHUWE-BIZSq4RJtWi-2">
          <mxGeometry x="120" y="10" width="110" height="40" as="geometry" />
        </mxCell>
        <mxCell id="IrvWHUWE-BIZSq4RJtWi-13" value="Balloting of business for the house" style="rounded=0;whiteSpace=wrap;html=1;" vertex="1" parent="IrvWHUWE-BIZSq4RJtWi-2">
          <mxGeometry x="115" y="118" width="120" height="52" as="geometry" />
        </mxCell>
        <mxCell id="IrvWHUWE-BIZSq4RJtWi-12" value="" style="edgeStyle=orthogonalEdgeStyle;rounded=0;orthogonalLoop=1;jettySize=auto;html=1;entryX=0.5;entryY=0;entryDx=0;entryDy=0;" edge="1" parent="IrvWHUWE-BIZSq4RJtWi-2" source="IrvWHUWE-BIZSq4RJtWi-10" target="IrvWHUWE-BIZSq4RJtWi-13">
          <mxGeometry relative="1" as="geometry">
            <mxPoint x="175" y="120" as="targetPoint" />
          </mxGeometry>
        </mxCell>
        <mxCell id="IrvWHUWE-BIZSq4RJtWi-3" value="Table Office" style="swimlane;html=1;startSize=20;horizontal=0;" vertex="1" parent="IrvWHUWE-BIZSq4RJtWi-1">
          <mxGeometry y="210" width="1120" height="120" as="geometry" />
        </mxCell>
        <mxCell id="IrvWHUWE-BIZSq4RJtWi-22" value="Uploading of Order paper to the website" style="whiteSpace=wrap;html=1;rounded=0;" vertex="1" parent="IrvWHUWE-BIZSq4RJtWi-3">
          <mxGeometry x="280" y="40" width="120" height="60" as="geometry" />
        </mxCell>
        <mxCell id="IrvWHUWE-BIZSq4RJtWi-14" value="Drafting of Oder paper" style="whiteSpace=wrap;html=1;rounded=0;" vertex="1" parent="IrvWHUWE-BIZSq4RJtWi-3">
          <mxGeometry x="115" y="40" width="120" height="60" as="geometry" />
        </mxCell>
        <mxCell id="IrvWHUWE-BIZSq4RJtWi-35" value="End" style="rounded=1;whiteSpace=wrap;html=1;" vertex="1" parent="IrvWHUWE-BIZSq4RJtWi-3">
          <mxGeometry x="1020" y="50" width="90" height="40" as="geometry" />
        </mxCell>
        <mxCell id="IrvWHUWE-BIZSq4RJtWi-4" value="Clerk" style="swimlane;html=1;startSize=20;horizontal=0;" vertex="1" parent="IrvWHUWE-BIZSq4RJtWi-1">
          <mxGeometry y="330" width="1120" height="120" as="geometry" />
        </mxCell>
        <mxCell id="IrvWHUWE-BIZSq4RJtWi-16" value="Confirmation of&lt;br/&gt;Order Paper&lt;br/&gt;" style="whiteSpace=wrap;html=1;rounded=0;" vertex="1" parent="IrvWHUWE-BIZSq4RJtWi-4">
          <mxGeometry x="115" y="34" width="120" height="60" as="geometry" />
        </mxCell>
        <mxCell id="IrvWHUWE-BIZSq4RJtWi-9" value="Speaker" style="swimlane;html=1;startSize=20;horizontal=0;" vertex="1" parent="IrvWHUWE-BIZSq4RJtWi-1">
          <mxGeometry y="450" width="1120" height="184" as="geometry" />
        </mxCell>
        <mxCell id="IrvWHUWE-BIZSq4RJtWi-36" value="Speaker review" style="rounded=0;whiteSpace=wrap;html=1;" vertex="1" parent="IrvWHUWE-BIZSq4RJtWi-9">
          <mxGeometry x="115" y="48" width="120" height="60" as="geometry" />
        </mxCell>
        <mxCell id="IrvWHUWE-BIZSq4RJtWi-15" value="" style="edgeStyle=orthogonalEdgeStyle;rounded=0;orthogonalLoop=1;jettySize=auto;html=1;" edge="1" parent="IrvWHUWE-BIZSq4RJtWi-1" source="IrvWHUWE-BIZSq4RJtWi-13" target="IrvWHUWE-BIZSq4RJtWi-14">
          <mxGeometry relative="1" as="geometry" />
        </mxCell>
        <mxCell id="IrvWHUWE-BIZSq4RJtWi-17" value="" style="edgeStyle=orthogonalEdgeStyle;rounded=0;orthogonalLoop=1;jettySize=auto;html=1;" edge="1" parent="IrvWHUWE-BIZSq4RJtWi-1" source="IrvWHUWE-BIZSq4RJtWi-14" target="IrvWHUWE-BIZSq4RJtWi-16">
          <mxGeometry relative="1" as="geometry" />
        </mxCell>
        <mxCell id="IrvWHUWE-BIZSq4RJtWi-19" value="" style="edgeStyle=orthogonalEdgeStyle;rounded=0;orthogonalLoop=1;jettySize=auto;html=1;entryX=0.5;entryY=0;entryDx=0;entryDy=0;" edge="1" parent="IrvWHUWE-BIZSq4RJtWi-1" source="IrvWHUWE-BIZSq4RJtWi-16" target="IrvWHUWE-BIZSq4RJtWi-36">
          <mxGeometry relative="1" as="geometry">
            <mxPoint x="175" y="494" as="targetPoint" />
          </mxGeometry>
        </mxCell>
        <mxCell id="IrvWHUWE-BIZSq4RJtWi-23" value="" style="edgeStyle=orthogonalEdgeStyle;rounded=0;orthogonalLoop=1;jettySize=auto;html=1;exitX=1;exitY=0.5;exitDx=0;exitDy=0;" edge="1" parent="IrvWHUWE-BIZSq4RJtWi-1" source="IrvWHUWE-BIZSq4RJtWi-36" target="IrvWHUWE-BIZSq4RJtWi-22">
          <mxGeometry relative="1" as="geometry">
            <mxPoint x="215" y="534" as="sourcePoint" />
            <Array as="points">
              <mxPoint x="340" y="528" />
            </Array>
          </mxGeometry>
        </mxCell>
        <mxCell id="IrvWHUWE-BIZSq4RJtWi-28" value="" style="edgeStyle=orthogonalEdgeStyle;rounded=0;orthogonalLoop=1;jettySize=auto;html=1;" edge="1" parent="1" source="IrvWHUWE-BIZSq4RJtWi-25" target="IrvWHUWE-BIZSq4RJtWi-27">
          <mxGeometry relative="1" as="geometry" />
        </mxCell>
        <mxCell id="IrvWHUWE-BIZSq4RJtWi-25" value="&lt;br/&gt;&lt;p style=&quot;margin-bottom: 0in ; line-height: 150%&quot;&gt;Archiving of Order&lt;br/&gt;paper&lt;/p&gt;&lt;br/&gt;" style="whiteSpace=wrap;html=1;rounded=0;" vertex="1" parent="1">
          <mxGeometry x="481" y="270" width="120" height="60" as="geometry" />
        </mxCell>
        <mxCell id="IrvWHUWE-BIZSq4RJtWi-26" value="" style="edgeStyle=orthogonalEdgeStyle;rounded=0;orthogonalLoop=1;jettySize=auto;html=1;" edge="1" parent="1" source="IrvWHUWE-BIZSq4RJtWi-22" target="IrvWHUWE-BIZSq4RJtWi-25">
          <mxGeometry relative="1" as="geometry" />
        </mxCell>
        <mxCell id="IrvWHUWE-BIZSq4RJtWi-32" value="" style="edgeStyle=orthogonalEdgeStyle;rounded=0;orthogonalLoop=1;jettySize=auto;html=1;" edge="1" parent="1" source="IrvWHUWE-BIZSq4RJtWi-27" target="IrvWHUWE-BIZSq4RJtWi-31">
          <mxGeometry relative="1" as="geometry" />
        </mxCell>
        <mxCell id="IrvWHUWE-BIZSq4RJtWi-27" value="Preparation of Votes and Proceedings" style="whiteSpace=wrap;html=1;rounded=0;" vertex="1" parent="1">
          <mxGeometry x="664" y="270" width="120" height="60" as="geometry" />
        </mxCell>
        <mxCell id="IrvWHUWE-BIZSq4RJtWi-34" value="" style="edgeStyle=orthogonalEdgeStyle;rounded=0;orthogonalLoop=1;jettySize=auto;html=1;entryX=0;entryY=0.5;entryDx=0;entryDy=0;" edge="1" parent="1" source="IrvWHUWE-BIZSq4RJtWi-31" target="IrvWHUWE-BIZSq4RJtWi-35">
          <mxGeometry relative="1" as="geometry">
            <mxPoint x="1040" y="300" as="targetPoint" />
          </mxGeometry>
        </mxCell>
        <mxCell id="IrvWHUWE-BIZSq4RJtWi-31" value="Archiving of Votes and Proceedings" style="whiteSpace=wrap;html=1;rounded=0;" vertex="1" parent="1">
          <mxGeometry x="840" y="270" width="120" height="60" as="geometry" />
        </mxCell>
        <mxCell id="IrvWHUWE-BIZSq4RJtWi-24" value="yes" style="text;html=1;strokeColor=none;fillColor=none;align=center;verticalAlign=middle;whiteSpace=wrap;rounded=0;" vertex="1" parent="1">
          <mxGeometry x="353" y="450" width="40" height="20" as="geometry" />
        </mxCell>
      </root>
    </mxGraphModel>
  </diagram>
</mxfile>
